<svg version="1.1" xmlns="http://www.w3.org/2000/svg" xmlns:xlink="http://www.w3.org/1999/xlink" width="88" height="44" viewBox="0,0,88,44"><g transform="translate(-196,-158)"><g data-paper-data="{&quot;isPaintingLayer&quot;:true}" fill-rule="nonzero" stroke-linecap="butt" stroke-linejoin="miter" stroke-miterlimit="10" stroke-dasharray="" stroke-dashoffset="0" style="mix-blend-mode: normal"><path d="M196.5,201.5v-43h87v43z" fill="#ffffff" stroke="#000000" stroke-width="1"/><path d="M254.54898,172.92168c0.75802,-0.88804 2.17485,-0.86569 3.30375,-1.16367c4.2677,-1.12649 8.38734,-1.45297 10.66156,3.13504c0.36163,0.72954 0.58066,1.65278 0.64274,2.62863c0.2766,0.40229 0.4385,0.88959 0.4385,1.4147c0,0.74537 -0.3262,1.41455 -0.84362,1.87258c-0.01539,0.04569 -0.03121,0.09111 -0.04746,0.13625c0.02945,0.25698 0.03703,0.51106 0.02078,0.76044c-0.1803,2.76657 -3.35856,6.44405 -6.22644,6.63803c-0.84967,0.05747 -1.78505,-0.21353 -2.68746,-0.70021c-1.85334,0.27586 -3.52373,-0.43452 -5.21038,-1.14896c0.6268,2.42322 -0.21692,4.69225 -4.06129,6.06682c-2.57481,0.92063 -5.60305,-0.0247 -6.8973,-2.39601c-0.50618,0.1084 -1.04569,0.21083 -1.62433,0.30922l-2.54559,0.42427c-0.14831,0.02742 -0.30121,0.04176 -0.45746,0.04176c-1.38071,0 -2.5,-1.11929 -2.5,-2.5c0,-0.20136 0.02381,-0.39717 0.06876,-0.58475c-0.39005,0.04196 -0.76918,0.06054 -1.12459,0.0587c-0.24906,-0.00129 -0.49247,-0.00864 -0.73051,-0.02191c-1.99589,0.66506 -6.64102,2.58802 -7.85404,-0.43244c-0.47034,-1.17116 -0.47231,-2.20046 -0.14895,-3.09272c-0.08817,-0.02296 -0.1776,-0.04699 -0.26833,-0.07211c-0.44764,-0.12394 -0.81192,-0.37298 -1.12524,-0.69851c-0.92612,0.87263 -1.67789,2.08958 -2.85298,2.47558c-1.2077,1.63241 -3.29074,2.97545 -4.20054,3.14012c-1.43091,0.25899 -2.52771,-1.44595 -3.72178,-2.27586c-2.6781,-1.86136 -5.62612,-5.1511 -3.86249,-8.16475l-0.00365,-0.01276l0.0134,-0.00383c0.00767,-0.01298 0.01543,-0.02595 0.02328,-0.03892c-0.03816,-0.09822 -0.07445,-0.19729 -0.10871,-0.2973c-1.59802,-4.66374 3.3851,-11.27847 8.36485,-10.60328c1.7326,-0.79493 3.66496,-1.02548 5.4359,-0.26134c2.85035,1.2299 3.10793,2.67842 3.87787,4.59873c0.78365,-1.26212 1.61812,-2.72755 2.94157,-2.62898c3.76035,0.28005 4.08914,3.96669 3.77942,7.1208c0.16649,0.0223 0.33297,0.04437 0.49944,0.06614c0.00025,-0.00554 0.0006,-0.01109 0.00106,-0.01665c0.34246,-4.12687 2.17137,-9.05963 4.17157,-12.65125c0.8508,-1.52772 1.01509,-4.16236 2.73532,-4.47641c1.84992,-0.33773 3.47555,1.69243 4.70101,3.11879c1.34606,1.56674 1.46983,3.39435 1.38556,5.25371c1.95293,1.72969 3.30198,4.7525 3.78918,7.13534l1.79418,-1.79418l0.0953,0.0953c0.11335,-0.15535 0.23246,-0.30692 0.35814,-0.45416zM220.7704,180.8995c0.58855,0.21355 0.84331,0.00175 1.0277,-0.37501c-0.46588,0.06826 -0.93176,0.13872 -1.40177,0.20509c0.09695,0.05146 0.18703,0.09442 0.27088,0.12952c0.01324,0.00499 0.02646,0.01007 0.03968,0.01525c0.02132,0.00835 0.04248,0.01673 0.06351,0.02514zM218.3699,175.91401c1.10869,-0.14426 2.06768,-0.26155 2.52743,-0.31246c-0.57468,-0.60656 -1.064,-1.31585 -1.63089,-1.92265c-0.20664,0.23998 -0.35981,0.4702 -0.43314,0.66065c-0.19717,0.51205 -0.34303,1.03938 -0.4634,1.57446zM249.0544,188.11753c0.16015,-0.0169 0.3179,-0.04489 0.45883,-0.0851l-0.08632,-0.15826c-0.12336,0.08341 -0.24742,0.16449 -0.37251,0.24336z" fill="#ffffff" stroke="none" stroke-width="0.5"/><text transform="translate(208.73121,187.01875) scale(0.60834,0.60834)" font-size="40" xml:space="preserve" fill="#000000" fill-rule="nonzero" stroke="none" stroke-width="1" stroke-linecap="butt" stroke-linejoin="miter" stroke-miterlimit="10" stroke-dasharray="" stroke-dashoffset="0" font-family="Sans Serif" font-weight="normal" text-anchor="start" style="mix-blend-mode: normal"><tspan x="0" dy="0">Close</tspan></text></g></g></svg>